HIERARCHY
ROOT Hips
{
  OFFSET -103.128 26.4911 65.7713
  CHANNELS 6 Xposition Yposition Zposition Zrotation Xrotation Yrotation
  JOINT ToSpine
  {
    OFFSET -2.69724 7.43032 -0.144315
    CHANNELS 3 Zrotation Xrotation Yrotation
    JOINT Spine
    {
      OFFSET -0.0310711 10.7595 1.96963
      CHANNELS 3 Zrotation Xrotation Yrotation
      JOINT Spine1
      {
        OFFSET 19.9056 3.91189 0.764692
        CHANNELS 3 Zrotation Xrotation Yrotation
        JOINT Neck
        {
          OFFSET 25.9749 7.03908 -0.130764
          CHANNELS 3 Zrotation Xrotation Yrotation
          JOINT Head
          {
            OFFSET 9.52751 0.295786 -0.907742
            CHANNELS 3 Zrotation Xrotation Yrotation
            End Site
            {
              OFFSET 16.4037 0.713936 2.7358
            }
          }
        }
        JOINT LeftShoulder
        {
          OFFSET 17.7449 4.33886 11.7777
          CHANNELS 3 Zrotation Xrotation Yrotation
          JOINT LeftArm
          {
            OFFSET 0.911315 1.27913 9.80584
            CHANNELS 3 Zrotation Xrotation Yrotation
            JOINT LeftForeArm
            {
              OFFSET 28.6126 1.18197 -3.53199
              CHANNELS 3 Zrotation Xrotation Yrotation
              JOINT LeftHand
              {
                OFFSET 27.5088 0.0218783 0.327423
                CHANNELS 3 Zrotation Xrotation Yrotation
                End Site
                {
                  OFFSET 18.6038 -0.000155887 0.382096
                }
              }
            }
          }
        }
        JOINT RightShoulder
        {
          OFFSET 17.1009 2.89543 -12.2328
          CHANNELS 3 Zrotation Xrotation Yrotation
          JOINT RightArm
          {
            OFFSET 1.4228 0.178766 -10.211
            CHANNELS 3 Zrotation Xrotation Yrotation
            JOINT RightForeArm
            {
              OFFSET 28.733 1.87905 2.64907
              CHANNELS 3 Zrotation Xrotation Yrotation
              JOINT RightHand
              {
                OFFSET 27.4588 0.290562 -0.101845
                CHANNELS 3 Zrotation Xrotation Yrotation
                End Site
                {
                  OFFSET 17.8396 -0.255518 -0.000602873
                }
              }
            }
          }
        }
      }
    }
  }
  JOINT LeftUpLeg
  {
    OFFSET -5.61296 -2.22332 -10.2353
    CHANNELS 3 Zrotation Xrotation Yrotation
    JOINT LeftLeg
    {
      OFFSET 2.56703 -44.7417 -7.93097
      CHANNELS 3 Zrotation Xrotation Yrotation
      JOINT LeftFoot
      {
        OFFSET 3.16933 -46.5642 -3.96578
        CHANNELS 3 Zrotation Xrotation Yrotation
        JOINT LeftToeBase
        {
          OFFSET 0.346054 -6.02161 12.8035
          CHANNELS 3 Zrotation Xrotation Yrotation
          End Site
          {
            OFFSET 0.134235 -1.35082 5.13018
          }
        }
      }
    }
  }
  JOINT RightUpLeg
  {
    OFFSET -5.7928 -1.72406 10.6446
    CHANNELS 3 Zrotation Xrotation Yrotation
    JOINT RightLeg
    {
      OFFSET -2.57161 -44.7178 -7.85259
      CHANNELS 3 Zrotation Xrotation Yrotation
      JOINT RightFoot
      {
        OFFSET -3.10148 -46.5936 -4.03391
        CHANNELS 3 Zrotation Xrotation Yrotation
        JOINT RightToeBase
        {
          OFFSET -0.0828122 -6.13587 12.8035
          CHANNELS 3 Zrotation Xrotation Yrotation
          End Site
          {
            OFFSET -0.131328 -1.35082 5.13018
          }
        }
      }
    }
  }
}
MOTION
Frames:	10
Frame Time:	0.0333333
-2.3458 25.8742 70.9408 17.2248 26.9206 169.051 -70.1915 0 88.8779 -173.231 49.6108 -61.3384 -20.821 34.2764 -0.936285 165.709 9.52746 -147.941 -179.31 60.5719 -149.72 -2.02354 14.5872 4.7003 -128.73 34.202 -110.291 19.5974 -16.1178 -131.829 8.67452 0.882075 12.7701 0.249022 -0.076274 7.35078 -104.469 11.8136 102.518 3.51881 -1.66348 145.641 -15.048 0.303645 -2.5627 -61.0083 3.19651 87.2633 0.615879 25.9555 8.18996 4.60359 3.07291 -0.569505 3.58753 10.2229 2.4052 32.2877 -26.4139 95.5386 169.989 40.4728 -148.563 -7.39065 -10.1398 1.14007 -21.9028 -45.2033 -37.8906 
-2.67582 26.8338 70.4963 17.9638 26.893 169.622 -70.1915 0 88.8779 -172.5 50.2677 -61.8833 -22.2204 34.9264 -0.888614 167.382 10.6946 -147.573 -179.875 61.0745 -146.216 -1.42131 14.2502 2.06357 -124.202 32.1928 -117.686 20.8284 -16.7634 -130.795 8.05041 0.938198 14.3479 0.246798 -0.43305 3.8091 -114.137 12.1054 99.7582 -5.88544 -14.1815 142.601 -40.1461 0.398732 -1.43199 -59.4569 4.45308 86.5677 0.425922 26.3294 8.91519 4.70118 3.59139 -0.56777 5.4024 14.3211 1.19551 30.7052 -25.6096 93.5099 169.753 42.201 -147.121 -7.35241 -11.2936 1.14761 -21.2596 -45.548 -35.577 
-3.24815 27.8536 69.785 18.3577 25.9396 169.948 -70.1915 0 88.8779 -172.919 50.7162 -62.2886 -23.6592 35.1619 -1.07421 163.896 9.64993 -146.253 171.037 60.6076 -141.054 -1.12798 14.823 0.450468 -120.224 30.5221 -124.63 21.6397 -17.2971 -130.326 7.23738 0.94103 15.7384 -0.0139099 -2.95786 -1.42631 -124.147 10.5916 100.439 -15.051 -22.6539 136.899 -36.467 4.11026 -12.5691 -59.0019 4.23163 84.4245 1.13101 24.7982 10.7668 4.57002 4.61601 -0.515098 8.38519 20.0543 -1.42201 29.2188 -25.4418 91.7575 169.614 44.1448 -147.938 -7.40739 -12.1001 1.15467 -20.75 -45.2648 -34.7281 
-4.09403 28.9909 68.5347 18.6238 24.3208 169.51 -70.1915 0 88.8779 -174.554 51.1664 -63.5206 -26.2045 35.427 -0.957269 162.552 10.7607 -146.552 168.631 61.7831 -139.78 -1.0768 15.3082 0.0319148 -115.915 29.5643 -131.675 21.67 -17.1601 -130.065 5.60202 0.763416 16.1965 -0.453265 -5.16689 -6.47223 -132.066 7.41326 100.477 -31.1791 -31.5636 125.797 -21.1165 2.13681 -11.4508 -59.4072 4.07251 87.5632 3.28796 21.0707 7.09022 4.48614 4.96159 -0.490368 16.0092 31.55 -8.2139 27.9874 -25.2838 90.6481 169.545 46.3014 -150.132 -7.82479 -12.5803 1.16299 -22.3748 -49.4126 -31.9527 
-5.28751 29.8841 67.0484 20.1761 24.2704 168.218 -70.1915 0 88.8779 -174.86 52.8482 -65.1535 -26.2128 37.3761 -3.01287 160.756 12.198 -147.919 166.785 63.2172 -139.725 -0.847767 14.8205 -0.842683 -112.676 27.883 -138.61 20.3113 -15.922 -130.272 2.26544 0.318272 15.2902 -1.22815 -7.27163 -14.0815 -136.446 2.01091 98.8771 -27.7624 -25.4118 123.733 -7.10326 0.360162 -5.68118 -60.4124 5.14922 94.5839 4.5405 15.1368 1.82187 3.95666 5.88855 -0.369592 24.8986 40.8368 -16.2367 27.1274 -23.0416 89.4125 169.244 48.9494 -150.165 -7.51404 -12.7963 1.16072 -21.7003 -50.9879 -28.0343 
-6.66357 31.0988 65.7817 20.7782 22.3641 168.347 -70.1915 0 88.8779 -176.373 53.9098 -65.2725 -27.2925 37.8618 -4.57707 160.797 14.195 -151.102 168.417 64.3884 -142.103 -0.757813 14.4753 -1.14484 -110.39 26.458 -144.578 17.6705 -13.7259 -131.042 -2.42058 -0.217832 14.1319 -1.58591 -7.91307 -17.3137 -141.069 1.756 101.791 -21.0683 -16.457 119.747 2.86943 -0.133357 -7.18669 -59.5989 5.69996 95.0637 4.4311 12.9844 1.72334 3.7794 5.78885 -0.343163 35.6796 48.6244 -25.7422 25.3721 -23.0729 88.4069 168.723 51.8792 -148.716 -7.74853 -13.4139 1.16557 -21.7799 -50.2047 -29.3485 
-8.36469 32.455 64.3393 20.4016 20.2668 168.237 -70.1915 0 88.8779 -179.195 54.6034 -65.7922 -27.3679 37.6084 -5.3264 160.006 16.2404 -154.078 170.672 66.0405 -145.796 -0.232076 14.0581 -3.51366 -108.677 23.5242 -150.369 15.9902 -12.1844 -131.263 -5.25426 -0.465843 12.7428 -2.09401 -8.53939 -22.0684 -143.787 -0.316531 104.347 -14.2021 -8.54759 111.992 13.8938 -0.752041 -6.82373 -57.9595 6.53505 95.5956 3.29324 13.7745 2.74979 2.47406 6.42249 -0.0895143 41.8162 49.8315 -33.202 22.7237 -23.0451 87.9077 168.104 55.0629 -147.695 -9.89672 -14.0119 1.16555 -21.3938 -49.4535 -29.5382 
-10.3456 33.9704 62.7942 18.7288 17.3995 168.657 -70.1915 0 88.8779 177.339 53.8664 -65.6638 -26.944 36.92 -6.76451 158.312 17.8413 -157.425 174.543 67.4479 -152.168 0.433053 12.3739 -6.49509 -107.778 19.5107 -154.895 16.6224 -12.7667 -131.187 -8.25945 -0.729126 12.3489 -3.07859 -10.1347 -27.655 -145.56 -3.73153 106.333 -6.34895 -3.21621 102.504 22.2177 -1.35495 -7.45965 -54.9134 7.43921 94.2713 1.81429 18.7623 6.55761 1.36121 5.80904 0.0696133 45.6577 47.6511 -40.6499 19.2802 -23.7032 87.8997 167.37 58.1935 -146.714 -9.10135 -14.2158 1.16485 -20.7761 -49.4919 -27.981 
-12.6675 35.2471 60.8439 17.2303 15.6568 169.989 -70.1915 0 88.8779 174.683 53.0112 -65.3916 -25.7211 36.2091 -7.84676 154.583 18.1545 -158.83 173.078 68.2325 -154.328 1.27955 11.3823 -10.921 -107.192 14.9781 -158.678 19.3924 -15.1482 -130.516 -9.84976 -0.914533 12.7852 -4.56688 -12.2713 -33.9761 -146.963 -8.7576 108.897 2.9215 -0.926026 91.5503 22.9431 -1.85927 -9.76806 -51.6356 10.8133 95.3461 0.345661 24.5293 8.41445 0.0630116 5.76627 0.288178 49.4412 48.071 -45.0273 14.457 -23.4238 85.8264 166.34 61.8908 -145.905 -7.42228 -14.1025 1.16909 -17.581 -54.3238 -14.5013 
-14.9785 36.0988 58.8182 15.9529 13.8178 171.088 -70.1915 0 88.8779 171.7 52.2039 -65.1011 -25.471 35.4299 -8.80659 152.495 19.0408 -162.165 175.215 68.5475 -159.681 1.59467 9.76851 -12.877 -106.031 12.0766 -160.362 22.5991 -17.7652 -129.553 -8.3838 -0.950648 15.2973 -5.43789 -13.6257 -36.2546 -147.408 -11.2482 113.564 9.45611 -1.86182 80.4153 21.0449 -2.22157 -12.6523 -47.6161 16.4825 102.38 -0.257035 32.2871 7.37089 -1.86236 3.84339 0.449305 50.5776 50.6747 -43.6575 9.71186 -22.595 84.3761 165.027 65.284 -144.201 -7.0888 -14.6524 1.17533 -15.5197 -53.2383 -10.7715 
